<?xml version="1.0" encoding="UTF-8" ?>
<!DOCTYPE svg PUBLIC "-//W3C//DTD SVG 1.1//EN" "http://www.w3.org/Graphics/SVG/1.1/DTD/svg11.dtd">
<svg width="1067pt" height="1067pt" viewBox="0 0 1067 1067" version="1.1" xmlns="http://www.w3.org/2000/svg">
<g id="#ffffffff">
<path fill="#ffffff" opacity="1.00" d=" M 486.48 294.30 C 491.90 293.43 497.99 292.21 503.07 294.97 C 514.37 304.17 522.73 317.40 524.95 331.92 C 525.73 336.40 524.98 341.03 523.22 345.19 C 522.01 348.49 519.89 351.49 519.39 355.03 C 519.45 358.81 524.08 360.93 527.24 359.23 C 535.39 355.46 541.18 348.34 547.38 342.11 C 547.28 345.69 546.93 349.32 547.53 352.88 C 548.07 355.89 552.46 356.82 554.38 354.53 C 558.22 350.51 560.97 345.63 564.19 341.12 C 564.27 345.12 564.09 349.19 565.12 353.10 C 565.78 356.05 568.77 358.59 571.90 357.77 C 574.46 355.75 575.72 352.60 577.33 349.85 C 579.16 354.36 582.75 358.13 587.51 359.48 C 588.87 361.49 590.01 364.59 592.96 364.41 C 595.64 364.83 598.46 362.62 598.48 359.87 C 598.58 350.86 599.47 341.89 600.50 332.95 C 600.80 330.23 601.44 327.42 603.27 325.29 C 609.02 318.08 615.87 311.84 622.82 305.82 C 627.30 302.22 632.19 298.56 638.02 297.66 C 643.92 297.66 649.84 298.59 655.48 300.36 C 660.27 301.81 664.43 304.66 668.80 307.01 C 672.49 308.90 674.82 312.42 677.39 315.52 C 683.70 323.41 689.94 331.53 694.11 340.79 C 698.47 353.67 700.76 367.39 699.73 381.01 C 699.55 391.65 701.45 402.26 700.21 412.91 C 699.99 439.33 687.09 463.07 676.56 486.58 C 674.51 492.06 671.19 496.90 668.69 502.17 C 669.83 502.78 670.97 503.39 672.13 504.01 C 676.63 501.38 681.09 498.68 685.56 495.99 C 683.57 503.45 682.36 511.09 680.25 518.52 C 678.18 525.94 677.48 533.63 676.65 541.26 C 678.78 541.10 681.37 541.74 683.11 540.10 C 691.92 532.14 699.42 522.32 703.09 510.91 C 705.39 504.86 707.00 498.57 708.28 492.23 C 709.10 491.86 709.93 491.49 710.77 491.13 C 711.03 498.61 711.52 506.30 709.27 513.55 C 706.15 524.26 701.27 534.65 694.19 543.30 C 688.47 548.60 682.65 554.30 675.15 556.94 C 672.43 557.68 672.02 560.77 671.54 563.12 C 669.90 575.37 668.54 587.66 666.34 599.83 C 662.40 616.60 658.06 633.80 648.20 648.21 C 644.06 654.11 640.62 660.47 636.24 666.19 C 630.96 673.01 626.51 680.42 621.03 687.09 C 616.76 692.47 612.13 697.57 608.29 703.29 C 602.44 711.63 595.27 718.99 587.55 725.62 C 582.81 729.59 578.07 733.70 572.45 736.39 C 561.00 741.93 547.42 743.85 535.19 739.80 C 525.63 736.83 516.90 731.28 510.03 724.00 C 497.86 710.05 488.40 693.87 475.30 680.71 C 468.12 673.71 462.48 665.37 456.75 657.20 C 447.70 644.92 441.94 630.50 438.25 615.78 C 437.19 606.51 436.26 597.23 435.38 587.94 C 434.64 582.04 433.21 576.24 432.64 570.31 C 423.88 565.82 416.99 558.41 411.76 550.19 C 406.96 542.66 401.44 535.50 397.92 527.23 C 394.49 518.23 393.20 508.35 394.63 498.80 C 396.56 499.37 398.48 499.94 400.42 500.53 C 400.54 505.79 400.44 511.25 402.56 516.18 C 407.26 527.66 413.49 538.86 422.79 547.27 C 424.64 549.26 428.81 548.77 429.44 545.89 C 430.84 534.22 425.35 523.20 425.21 511.62 C 428.81 512.70 432.53 514.19 436.36 513.28 C 436.07 512.00 435.73 510.74 435.32 509.50 C 430.55 498.89 423.47 489.25 420.60 477.84 C 418.80 471.29 416.42 464.87 415.31 458.14 C 413.95 449.39 412.39 440.68 410.91 431.95 C 406.68 411.41 409.27 390.21 413.46 369.89 C 415.62 361.08 418.65 352.49 422.19 344.14 C 427.11 333.48 434.25 323.72 443.43 316.32 C 456.04 306.10 470.75 298.37 486.48 294.30 M 486.85 526.42 C 478.84 520.68 470.59 515.24 462.87 509.11 C 458.82 506.02 454.24 503.07 449.00 502.87 C 443.06 502.50 437.52 509.11 439.84 514.85 C 440.43 516.97 442.40 518.06 444.15 519.13 C 444.49 516.35 444.81 513.57 445.19 510.80 C 448.30 510.51 451.65 510.07 454.53 511.65 C 464.23 516.75 471.43 525.26 480.10 531.79 C 481.95 533.25 483.99 534.54 485.52 536.37 C 486.90 540.58 486.85 545.11 487.51 549.47 C 479.20 548.05 471.03 545.34 462.51 545.44 C 462.89 549.25 466.62 550.43 469.78 551.20 C 466.27 552.72 461.25 553.92 460.89 558.52 C 462.03 559.34 463.18 560.17 464.33 561.01 C 467.17 559.86 470.00 558.69 472.83 557.51 C 477.09 563.36 482.06 568.83 488.41 572.43 C 488.58 574.30 488.74 576.17 488.91 578.05 C 485.85 576.58 482.75 575.15 479.96 573.20 C 477.72 571.74 475.76 569.67 473.02 569.20 C 473.80 576.34 479.67 581.52 484.90 585.84 C 478.24 596.22 472.32 607.07 465.21 617.15 C 460.40 623.76 458.22 632.36 459.78 640.42 C 460.58 644.98 462.98 649.62 467.39 651.59 C 471.70 654.13 476.65 651.79 480.92 650.40 C 481.81 655.90 482.54 663.41 489.15 664.88 C 491.45 660.17 488.83 655.31 487.63 650.72 C 491.76 653.53 496.61 655.31 500.36 658.66 C 508.25 668.14 511.36 680.36 516.82 691.20 C 520.66 698.33 526.53 704.11 532.68 709.27 C 542.31 716.91 556.22 717.31 567.17 712.36 C 575.34 708.94 581.35 701.73 585.10 693.89 C 589.69 682.90 594.53 671.96 600.85 661.83 C 604.00 656.28 609.46 652.67 614.35 648.80 C 611.41 654.39 607.64 659.95 607.74 666.54 C 609.20 665.82 611.25 665.68 612.01 664.00 C 614.12 660.28 615.77 656.31 618.10 652.70 C 622.37 652.88 626.77 653.16 630.87 651.68 C 634.73 650.51 638.92 648.39 640.19 644.25 C 643.14 637.02 641.44 629.07 639.37 621.86 C 636.14 609.01 625.53 599.03 624.65 585.43 C 630.81 581.02 634.71 574.04 636.06 566.65 C 631.13 568.41 627.80 572.62 623.67 575.61 C 623.63 574.68 623.55 572.84 623.51 571.91 C 630.89 568.47 634.68 560.71 636.46 553.16 C 640.87 554.42 645.38 555.67 650.02 555.45 C 651.01 554.30 652.05 553.20 652.95 551.99 C 650.08 549.09 645.98 548.01 642.20 546.86 C 642.54 545.13 644.61 541.95 641.91 541.34 C 634.43 540.20 627.88 544.81 621.08 547.08 C 621.29 544.14 620.71 540.88 622.24 538.22 C 624.37 535.68 627.17 533.83 629.63 531.64 C 638.70 524.52 645.86 515.06 656.09 509.43 C 658.55 508.26 661.02 506.01 663.93 506.73 C 666.16 508.15 666.72 510.95 667.83 513.18 C 672.03 507.21 665.16 498.20 658.37 500.53 C 643.95 506.99 632.43 518.11 619.71 527.20 C 619.17 518.88 618.21 510.43 614.96 502.66 C 614.14 502.67 612.50 502.68 611.69 502.69 C 611.38 512.44 615.19 521.84 614.34 531.62 C 608.55 535.01 603.28 539.31 597.13 542.08 C 591.93 544.51 586.32 545.81 580.81 547.31 C 580.70 544.59 581.61 540.89 578.66 539.31 C 576.48 537.33 573.48 539.02 571.98 540.97 C 568.49 545.82 566.10 552.21 568.30 558.11 C 571.94 558.30 573.83 555.06 575.21 552.22 C 588.42 553.58 601.02 548.66 613.21 544.30 C 612.89 546.34 612.60 548.39 612.31 550.44 C 604.16 553.69 596.12 557.20 587.86 560.16 C 585.53 560.99 583.31 562.09 581.11 563.22 C 580.73 564.51 580.36 565.81 579.98 567.11 C 586.50 570.84 593.84 572.72 601.12 574.32 C 606.18 575.35 611.35 574.66 616.43 574.17 C 616.30 575.99 616.19 577.81 616.10 579.64 C 612.69 580.06 609.27 580.36 605.86 580.75 C 607.41 585.44 612.59 586.62 616.94 587.03 C 622.36 600.49 628.60 613.71 632.00 627.88 C 633.35 632.39 633.32 637.60 630.49 641.56 C 628.69 644.45 625.05 645.24 621.87 644.92 C 615.74 644.48 611.56 639.38 607.98 634.95 C 607.02 633.43 605.34 632.81 603.76 632.21 C 603.60 634.95 602.94 637.91 604.25 640.50 C 605.45 642.96 607.42 644.93 609.18 647.00 C 599.45 654.44 589.10 661.93 576.88 664.46 C 570.01 666.03 563.00 664.62 556.06 664.71 C 542.85 664.97 529.69 662.73 516.94 659.41 C 506.09 656.58 496.23 651.00 487.39 644.21 C 491.33 640.32 494.86 635.68 495.72 630.05 C 494.71 628.76 493.69 627.49 492.66 626.25 C 490.37 629.15 488.55 632.38 486.57 635.49 C 483.97 639.64 479.81 642.85 475.08 644.14 C 471.56 644.65 468.85 641.33 468.46 638.11 C 466.71 629.03 471.70 620.68 476.13 613.18 C 480.86 604.34 486.25 595.90 491.41 587.31 C 495.61 586.68 499.91 585.83 503.46 583.35 C 500.77 582.28 498.01 581.39 495.23 580.60 C 495.09 578.78 494.95 576.94 494.82 575.14 C 506.64 578.06 519.25 573.87 528.38 566.19 C 529.80 565.28 529.62 563.40 530.08 561.98 C 519.13 558.07 507.93 554.91 496.64 552.18 C 495.99 549.45 495.42 546.70 494.88 543.95 C 505.65 550.39 517.85 555.38 530.62 554.91 C 531.73 556.81 532.61 560.77 535.61 559.63 C 541.46 555.93 538.72 547.32 534.47 543.42 C 532.18 541.02 528.85 542.96 526.53 544.26 C 527.43 546.10 528.31 547.97 529.18 549.84 C 519.33 548.92 510.20 544.49 502.47 538.49 C 499.19 535.93 493.76 533.97 493.92 529.04 C 493.50 518.73 494.82 508.45 496.31 498.27 C 495.44 498.29 493.69 498.35 492.81 498.38 C 489.78 507.45 488.10 516.95 486.85 526.42 M 655.42 523.11 C 654.05 528.81 649.30 532.57 645.88 537.03 C 647.24 537.52 648.60 538.06 650.03 538.42 C 652.70 537.95 654.78 536.04 657.02 534.65 C 657.03 538.66 656.08 542.81 657.28 546.73 C 658.64 548.39 661.02 548.28 662.94 548.85 C 668.00 543.05 668.44 535.03 668.31 527.70 C 665.93 524.42 665.55 519.36 661.57 517.49 C 658.05 516.48 656.18 520.34 655.42 523.11 M 438.26 531.03 C 437.81 538.78 438.09 547.05 441.94 554.01 C 443.87 557.52 447.24 560.18 451.33 560.54 C 451.95 558.45 453.13 556.23 452.30 554.03 C 451.26 551.33 449.42 549.06 447.81 546.70 C 451.11 548.29 454.55 549.93 458.33 549.71 C 458.88 548.25 459.45 546.81 460.01 545.36 C 457.27 542.91 454.28 540.79 451.51 538.40 C 448.41 535.76 446.34 532.21 443.63 529.23 C 442.02 527.20 438.99 529.20 438.26 531.03 M 542.24 615.20 C 539.34 616.51 536.38 619.23 533.00 617.94 C 529.45 616.72 526.07 613.04 522.09 614.82 C 518.56 615.77 516.79 619.47 516.89 622.90 C 516.58 629.20 519.08 636.85 525.50 639.20 C 529.36 640.83 533.50 639.39 537.40 638.69 C 541.62 641.73 544.30 646.62 549.09 648.92 C 554.45 651.65 561.35 650.82 565.95 646.97 C 568.42 644.70 569.33 641.01 572.34 639.28 C 575.78 639.27 579.25 642.43 582.63 640.44 C 587.53 635.99 591.88 629.96 591.56 623.01 C 591.82 619.54 590.09 615.04 586.06 614.93 C 582.28 615.21 579.63 618.45 576.00 619.17 C 570.49 618.70 567.26 613.26 562.05 611.97 C 555.35 610.09 548.13 611.72 542.24 615.20 Z" />
<path fill="#ffffff" opacity="1.00" d=" M 625.00 551.82 C 627.25 550.92 629.54 550.08 631.84 549.31 C 630.88 551.92 629.79 554.49 628.41 556.92 C 626.72 555.60 625.58 553.84 625.00 551.82 Z" />
<path fill="#ffffff" opacity="1.00" d=" M 478.59 553.33 C 480.48 553.81 482.38 554.33 484.28 554.85 C 483.59 557.55 483.01 560.29 482.49 563.04 C 480.60 560.07 478.46 557.04 478.59 553.33 Z" />
<path fill="#ffffff" opacity="1.00" d=" M 611.35 556.42 C 614.28 555.16 618.85 556.32 619.20 559.97 C 620.00 564.08 615.44 568.06 611.50 566.39 C 607.03 565.10 607.02 557.90 611.35 556.42 Z" />
<path fill="#ffffff" opacity="1.00" d=" M 495.42 558.49 C 498.06 557.01 502.18 557.67 503.31 560.77 C 505.09 564.68 501.25 569.91 496.90 568.72 C 492.18 568.06 491.17 560.50 495.42 558.49 Z" />
<path fill="#ffffff" opacity="1.00" d=" M 514.17 561.52 C 516.36 562.62 518.56 563.71 520.74 564.85 C 518.70 566.83 516.21 568.20 513.55 569.17 C 513.74 566.61 513.95 564.07 514.17 561.52 Z" />
<path fill="#ffffff" opacity="1.00" d=" M 591.03 565.71 C 592.34 563.99 594.10 562.74 596.11 561.96 C 596.74 563.54 597.27 565.16 597.74 566.80 C 595.47 566.63 593.22 566.31 591.03 565.71 Z" />
<path fill="#ffffff" opacity="1.00" d=" M 532.72 669.67 C 538.47 670.31 544.28 670.73 549.90 672.22 C 551.12 676.11 550.57 680.19 550.13 684.16 C 542.78 684.05 537.49 678.47 531.79 674.62 C 532.10 672.97 532.41 671.31 532.72 669.67 Z" />
<path fill="#ffffff" opacity="1.00" d=" M 554.91 672.89 C 560.18 671.72 565.60 671.88 570.95 671.41 C 571.01 672.37 571.12 674.29 571.18 675.26 C 567.96 677.64 565.08 680.43 561.97 682.93 C 560.06 684.37 556.65 685.00 555.08 682.79 C 554.26 679.55 554.66 676.17 554.91 672.89 Z" />
</g>
<g id="#000000ff">
<path fill="#000000" opacity="1.00" d=" M 560.11 104.98 C 561.26 103.30 562.71 101.13 565.08 101.64 C 567.03 101.72 567.98 103.74 568.51 105.34 C 570.92 113.81 571.52 123.10 576.60 130.58 C 581.57 137.53 589.45 141.45 596.79 145.40 C 612.33 153.13 625.62 166.40 631.13 183.09 C 633.05 183.18 635.01 183.10 636.90 183.60 C 639.55 184.67 640.96 187.34 642.63 189.50 C 646.05 184.95 650.82 180.19 656.99 180.62 C 665.28 181.27 671.99 186.74 678.30 191.64 C 682.46 194.93 687.97 194.97 692.96 195.87 C 698.25 196.71 702.77 200.07 706.32 203.94 C 711.70 209.79 716.92 215.88 723.26 220.73 C 726.82 223.29 728.54 227.47 730.23 231.37 C 732.94 228.47 736.56 224.34 741.01 226.21 C 746.25 228.51 747.44 234.72 749.75 239.39 C 755.08 237.63 760.41 235.47 766.08 235.13 C 769.42 234.91 772.55 237.21 773.85 240.21 C 775.85 244.65 775.73 249.66 775.64 254.43 C 778.45 253.13 781.74 251.47 784.81 253.03 C 789.61 255.29 792.22 260.30 793.83 265.11 C 795.88 262.96 797.79 260.00 801.05 259.72 C 806.65 258.88 812.21 262.09 815.23 266.70 C 817.35 269.86 817.93 273.70 818.65 277.36 C 820.63 278.15 823.39 278.32 824.28 280.63 C 826.23 285.63 826.59 291.04 827.68 296.25 C 831.48 291.26 835.04 285.57 834.92 279.06 C 835.64 272.11 831.62 265.88 831.50 259.05 C 831.32 256.78 834.36 257.70 835.01 258.96 C 841.65 266.59 846.59 275.63 849.87 285.18 C 851.44 289.30 850.20 293.73 849.44 297.89 C 847.70 306.54 841.90 313.64 839.55 322.08 C 837.24 330.74 833.79 339.09 832.19 347.94 C 829.67 360.52 830.68 373.55 827.71 386.06 C 825.20 396.80 824.26 407.86 821.40 418.53 C 818.99 426.19 815.37 433.42 811.35 440.36 C 805.90 449.88 797.81 457.50 791.89 466.70 C 788.49 472.26 782.85 475.79 778.40 480.39 C 774.09 484.81 769.47 488.95 764.33 492.37 C 760.98 494.63 757.06 496.11 754.31 499.18 C 756.88 498.72 759.38 497.90 761.75 496.80 C 772.35 491.90 783.90 489.75 795.09 486.63 C 805.87 483.57 817.59 482.62 828.46 485.83 C 831.70 486.84 835.68 488.96 835.33 492.97 C 835.74 498.66 830.76 502.57 826.00 504.48 C 830.94 505.01 837.05 505.32 840.00 510.01 C 842.38 513.99 839.41 518.55 836.19 521.00 C 830.59 525.03 823.54 526.16 817.56 529.50 C 826.89 530.26 836.81 532.57 843.60 539.48 C 846.80 542.60 846.59 549.19 842.12 551.02 C 837.21 552.00 832.06 551.08 827.21 552.54 C 827.17 552.76 827.10 553.21 827.06 553.44 C 831.60 557.39 837.37 560.05 840.88 565.13 C 843.28 568.36 843.25 573.37 840.38 576.32 C 838.54 578.23 835.91 578.95 833.55 579.93 C 836.11 582.62 839.09 585.81 838.68 589.84 C 837.99 594.94 832.95 598.23 828.12 598.68 C 821.54 599.32 815.16 597.04 808.88 595.42 C 802.01 593.60 796.09 588.97 788.95 588.17 C 785.02 588.34 782.62 592.00 780.29 594.72 C 781.88 596.86 783.15 599.80 786.05 600.40 C 794.41 602.65 802.68 597.48 811.07 599.33 C 816.69 600.55 823.49 600.82 827.34 605.77 C 829.99 608.85 828.68 613.19 827.34 616.55 C 831.33 619.19 835.55 622.74 836.08 627.84 C 836.69 631.68 834.30 635.43 830.87 637.04 C 827.85 638.72 824.29 637.97 821.01 638.00 C 817.52 637.84 814.04 638.38 810.69 639.30 C 816.21 642.68 823.02 644.61 826.89 650.16 C 828.94 653.19 827.93 657.11 826.13 660.01 C 824.40 662.68 824.43 666.65 821.34 668.29 C 816.55 670.58 810.92 670.50 805.89 669.04 C 802.42 667.76 799.01 669.75 795.74 670.72 C 800.13 676.14 805.10 681.06 809.72 686.28 C 813.93 691.05 812.74 700.23 806.51 702.70 C 802.42 703.85 798.03 702.53 794.49 700.41 C 789.16 697.26 785.39 692.25 781.29 687.75 C 783.95 692.95 786.18 698.37 787.91 703.96 C 789.78 710.06 795.05 715.19 794.52 721.91 C 792.76 726.00 791.06 731.54 786.15 732.67 C 781.02 733.65 776.52 730.40 772.67 727.48 C 775.02 731.05 777.96 734.59 778.34 739.02 C 778.58 741.96 775.94 744.78 772.96 744.57 C 769.50 744.49 766.18 743.45 762.79 742.90 C 763.91 748.26 765.74 753.42 767.65 758.54 C 770.07 765.74 764.20 775.60 756.05 774.62 C 747.68 772.54 742.66 764.88 737.57 758.55 C 735.45 759.29 733.33 760.05 731.22 760.82 C 733.58 768.63 736.24 776.43 740.50 783.44 C 742.65 787.00 744.34 791.87 741.71 795.64 C 740.23 798.33 736.78 797.43 734.30 797.61 C 734.92 801.72 736.20 806.17 734.36 810.16 C 732.38 813.97 728.71 817.69 724.10 817.45 C 719.11 816.91 715.56 812.84 713.15 808.79 C 710.81 804.61 707.87 800.65 703.93 797.87 C 701.81 801.11 700.67 805.18 701.41 809.04 C 702.49 815.21 706.57 820.58 706.61 826.98 C 706.32 830.99 704.43 834.96 701.13 837.36 C 695.13 837.08 689.19 835.23 684.46 831.46 C 685.75 835.20 687.31 839.00 687.13 843.04 C 687.19 846.72 683.65 849.97 679.99 849.61 C 675.89 849.40 673.13 846.00 670.25 843.52 C 668.74 846.40 667.31 849.68 664.30 851.30 C 662.03 852.28 659.52 851.48 657.19 851.29 C 657.08 856.33 655.55 862.11 650.79 864.70 C 646.91 866.45 642.78 864.45 639.18 862.96 C 638.19 863.63 637.23 864.33 636.26 865.04 C 635.04 873.40 626.33 879.67 618.03 878.16 C 614.61 877.14 613.12 873.59 610.67 871.35 C 608.71 869.90 606.46 868.94 604.36 867.77 C 602.13 875.10 595.08 880.44 587.36 880.22 C 585.45 882.90 583.68 885.92 580.74 887.61 C 578.74 888.43 576.53 888.24 574.42 888.38 C 569.73 895.52 558.96 895.29 552.90 890.14 C 551.00 888.15 549.89 885.59 548.43 883.31 C 544.32 886.66 542.63 892.60 537.38 894.54 C 532.91 896.52 527.00 893.78 525.80 889.01 C 524.34 883.38 526.14 877.66 526.25 872.00 C 523.68 877.85 521.98 884.68 516.57 888.68 C 512.15 892.05 504.98 890.48 502.53 885.44 C 499.39 879.71 501.63 873.09 502.10 867.00 C 502.75 862.90 498.96 860.23 496.80 857.31 C 494.43 859.78 492.46 863.07 489.05 864.19 C 486.04 865.10 483.25 863.41 480.69 862.07 C 477.41 868.92 472.81 876.34 464.97 878.36 C 460.82 879.45 457.01 876.86 454.10 874.22 C 451.40 875.55 448.22 877.66 445.18 876.07 C 441.58 874.13 441.08 869.61 440.91 865.97 C 440.23 858.18 442.53 850.61 443.71 843.00 C 440.86 845.27 437.88 847.96 434.04 848.16 C 429.44 848.97 423.84 847.41 421.79 842.87 C 420.60 839.41 421.36 835.68 421.21 832.10 C 416.22 837.24 415.52 845.40 409.49 849.64 C 405.48 852.18 400.78 849.52 396.79 848.26 C 392.69 846.68 392.92 841.48 393.37 837.89 C 394.04 825.14 403.45 813.97 401.02 800.89 C 395.60 802.58 390.67 805.65 386.70 809.71 C 382.90 813.29 382.72 819.27 378.64 822.64 C 376.11 824.70 372.44 823.63 370.02 821.92 C 367.12 819.88 367.01 816.02 366.28 812.88 C 364.50 812.31 362.56 812.04 360.99 811.01 C 359.01 809.56 358.84 806.95 358.17 804.80 C 353.61 804.44 348.62 803.21 345.67 799.44 C 341.18 792.65 340.55 783.87 342.75 776.17 C 339.89 778.33 336.84 780.95 333.02 780.85 C 328.17 781.03 323.65 776.82 323.52 771.96 C 323.41 765.79 325.70 759.96 327.72 754.24 C 323.86 754.32 319.94 755.03 316.11 754.23 C 312.19 753.24 310.41 748.61 311.33 744.94 C 312.46 739.98 315.19 735.60 317.39 731.07 C 319.56 726.61 323.36 723.33 326.54 719.63 C 322.88 720.59 319.52 722.37 315.93 723.52 C 313.71 723.97 312.18 721.68 311.45 719.93 C 310.28 717.44 312.28 715.19 313.35 713.10 C 309.33 714.02 305.03 714.98 301.01 713.54 C 297.35 712.08 294.97 708.03 295.26 704.14 C 295.51 701.13 297.86 699.02 299.68 696.86 C 297.13 693.25 295.71 688.85 296.42 684.42 C 291.07 684.89 284.22 683.99 281.64 678.56 C 279.30 673.15 282.90 667.70 285.79 663.31 C 280.82 662.64 275.30 660.92 272.81 656.16 C 270.55 652.86 271.16 648.73 272.24 645.13 C 270.14 643.45 267.58 641.90 266.73 639.18 C 265.78 636.64 266.70 633.57 268.95 632.04 C 274.16 628.45 280.30 626.54 286.36 624.97 C 280.37 622.67 275.09 618.94 270.39 614.62 C 267.53 611.92 263.67 609.83 262.25 605.96 C 261.08 601.39 262.05 596.39 264.45 592.38 C 265.36 590.65 267.19 589.71 269.04 589.32 C 277.08 587.57 285.17 585.96 293.40 585.40 C 286.56 582.53 279.00 583.55 271.84 582.50 C 270.10 582.26 267.98 581.08 268.12 579.06 C 267.94 573.76 273.29 570.55 274.01 565.46 C 270.50 561.61 265.40 559.03 263.40 553.97 C 262.84 551.35 263.28 548.63 263.25 545.97 C 259.75 543.05 254.99 540.11 254.92 535.00 C 255.16 531.31 258.56 529.08 261.46 527.42 C 265.38 525.05 270.05 524.96 274.45 524.38 C 270.23 522.50 265.75 520.64 261.03 521.07 C 255.97 521.23 250.10 522.75 245.76 519.28 C 242.49 516.63 243.37 511.67 245.33 508.49 C 248.17 503.48 253.99 501.62 259.20 500.19 C 257.95 498.41 256.72 496.62 255.50 494.82 C 258.28 489.80 263.14 485.88 268.87 484.91 C 280.11 482.42 291.61 486.04 301.50 491.33 C 306.49 493.78 310.76 497.49 315.94 499.59 C 315.37 497.87 315.17 495.70 313.21 495.00 C 303.07 489.65 296.71 479.64 290.95 470.11 C 283.81 456.85 277.39 442.91 274.90 427.95 C 274.30 424.57 272.42 421.61 271.32 418.39 C 265.61 403.01 263.82 386.37 264.53 370.05 C 265.95 355.40 266.43 340.69 267.94 326.05 C 268.17 321.82 270.71 318.17 271.13 313.97 C 273.37 298.45 273.89 282.54 271.07 267.05 C 270.80 264.82 269.82 261.66 272.35 260.35 C 273.76 259.24 275.54 260.34 276.35 261.62 C 282.77 270.71 287.69 280.90 295.31 289.12 C 296.76 286.52 298.20 281.97 302.02 282.80 C 309.90 285.89 317.84 289.25 324.54 294.58 C 323.75 286.76 327.83 279.50 332.91 273.91 C 334.26 272.40 336.32 271.98 338.08 271.15 C 338.80 268.97 339.15 266.51 340.75 264.76 C 343.55 261.84 347.32 259.99 349.79 256.73 C 351.96 253.93 352.51 250.31 354.19 247.25 C 356.70 242.61 360.72 239.09 364.38 235.39 C 367.25 232.51 368.07 228.38 370.03 224.95 C 371.97 221.75 376.62 221.63 378.35 218.21 C 382.47 211.56 386.84 204.93 392.63 199.60 C 395.53 196.91 400.01 195.01 403.80 197.01 C 407.16 198.42 410.84 201.63 414.60 199.48 C 420.41 196.36 426.25 192.98 432.83 191.79 C 436.12 188.18 438.50 182.73 443.87 181.95 C 447.84 181.40 451.93 180.39 455.93 181.17 C 460.92 183.00 462.53 188.60 464.64 192.94 C 468.38 187.96 472.16 182.59 477.91 179.79 C 484.37 176.75 491.63 176.21 498.65 175.66 C 501.79 168.58 507.14 162.87 512.12 157.06 C 515.11 153.75 518.03 150.34 521.44 147.46 C 524.40 144.96 528.35 143.88 530.99 140.94 C 533.55 138.43 536.10 134.99 540.02 134.86 C 542.99 135.17 544.33 138.24 545.92 140.36 C 548.86 127.96 553.18 115.74 560.11 104.98 M 574.89 183.02 C 576.05 187.64 580.74 189.88 583.31 193.58 C 586.07 197.67 587.75 202.37 590.28 206.60 C 594.78 214.14 596.69 222.81 599.87 230.93 C 604.74 243.60 606.73 257.48 604.98 270.98 C 604.30 277.47 600.13 282.75 596.71 288.05 C 596.83 279.92 595.54 271.73 592.53 264.16 C 591.43 261.53 589.88 259.02 587.68 257.18 C 585.78 255.53 581.77 256.04 581.70 259.06 C 580.39 265.85 579.42 272.72 577.53 279.39 C 576.46 272.28 574.13 265.40 571.00 258.94 C 570.10 257.01 568.29 255.11 565.97 255.54 C 563.84 255.94 563.07 258.22 562.80 260.08 C 561.77 266.41 561.24 272.82 560.13 279.15 C 558.80 273.20 558.20 267.11 558.11 261.02 C 557.95 252.69 557.22 244.34 557.96 236.02 C 558.27 232.69 558.25 229.33 558.17 225.99 C 556.81 226.14 555.46 226.31 554.12 226.50 C 549.35 236.87 544.72 247.52 543.07 258.92 C 540.67 271.48 539.67 284.26 539.58 297.04 C 536.82 290.15 534.22 283.16 532.60 275.90 C 528.37 258.58 529.44 240.62 529.69 222.96 C 529.69 216.04 531.63 209.31 531.98 202.42 C 530.30 202.63 527.49 201.45 526.92 203.78 C 524.74 209.54 523.45 215.59 521.61 221.47 C 518.15 232.63 517.94 244.42 517.84 256.00 C 517.75 264.28 520.13 272.30 522.65 280.10 C 526.47 291.28 532.88 301.30 538.01 311.89 C 539.45 314.75 540.72 317.76 542.83 320.22 C 544.24 321.97 547.78 322.07 548.55 319.65 C 549.27 314.95 547.36 310.43 546.64 305.86 C 543.89 290.14 546.42 274.13 549.35 258.64 C 549.23 274.06 552.47 289.24 556.93 303.92 C 557.60 306.26 559.47 307.90 561.25 309.42 C 562.80 308.14 565.37 307.24 565.28 304.83 C 565.65 296.37 565.99 287.87 567.51 279.51 C 568.74 287.68 569.15 295.95 570.28 304.14 C 570.34 306.05 572.00 307.93 574.01 307.76 C 577.15 307.63 579.17 304.72 580.43 302.15 C 584.01 294.05 583.92 284.95 586.47 276.55 C 587.60 288.56 585.51 300.61 582.41 312.18 C 581.18 316.21 587.49 319.46 589.98 316.02 C 598.29 303.98 608.15 292.74 613.83 279.10 C 617.64 267.86 616.65 255.57 614.20 244.14 C 612.07 233.27 606.65 223.49 603.16 213.05 C 600.70 205.67 596.08 199.32 592.79 192.32 C 590.44 187.29 586.44 183.32 582.28 179.76 C 580.76 178.58 579.14 176.85 577.03 177.63 C 575.19 178.68 574.13 180.98 574.89 183.02 M 491.61 193.49 C 488.73 204.59 487.35 216.03 486.60 227.45 C 484.35 218.69 486.34 209.65 485.12 200.82 C 483.70 201.38 481.39 200.90 480.90 202.78 C 473.93 218.48 472.13 236.08 473.58 253.08 C 467.55 242.75 465.56 230.69 464.77 218.91 C 464.37 215.96 464.66 212.10 461.72 210.33 C 459.46 208.78 456.94 210.90 456.12 213.02 C 452.41 221.23 450.73 230.16 449.13 238.97 C 447.45 248.41 449.95 257.84 450.67 267.23 C 446.44 259.55 445.23 250.68 441.44 242.81 C 439.73 239.01 436.16 236.63 433.03 234.11 C 430.81 234.75 427.58 235.13 427.15 237.92 C 426.25 240.72 429.47 241.62 431.19 242.87 C 434.29 244.47 435.48 247.97 436.38 251.10 C 438.23 257.78 439.42 264.82 443.07 270.83 C 445.16 274.36 448.72 276.57 451.75 279.20 C 453.96 281.00 455.89 283.21 458.44 284.56 C 461.17 286.00 465.23 283.18 464.21 280.04 C 463.54 276.59 462.10 273.37 461.02 270.05 C 458.17 262.01 457.05 253.48 456.31 245.02 C 455.88 239.49 458.26 234.22 457.92 228.71 C 459.38 238.77 461.30 249.16 467.00 257.80 C 469.97 262.24 471.10 267.98 475.53 271.36 C 478.22 273.35 481.26 276.31 484.91 275.28 C 487.78 274.07 487.81 270.52 486.59 268.09 C 481.61 255.76 478.02 242.32 479.95 228.93 C 481.00 235.63 481.79 242.45 484.24 248.83 C 486.77 255.36 487.84 262.46 491.19 268.68 C 492.72 271.89 498.20 270.50 498.36 267.05 C 497.95 262.30 495.61 257.92 495.56 253.11 C 494.94 239.10 492.48 224.93 495.09 210.97 C 496.45 202.94 498.73 195.07 499.66 186.97 C 500.04 184.85 497.09 185.07 495.83 184.50 C 493.91 187.23 492.40 190.24 491.61 193.49 M 641.06 202.87 C 641.42 207.47 643.68 211.59 644.93 215.97 C 647.48 224.42 650.22 233.09 649.68 242.04 C 649.31 248.15 648.83 254.48 645.89 259.98 C 643.85 264.71 639.86 269.69 642.44 275.03 C 644.14 274.27 646.25 274.03 647.55 272.55 C 656.27 261.87 663.85 249.91 667.35 236.45 C 668.87 246.67 667.62 257.21 664.15 266.93 C 663.03 270.28 661.38 273.51 661.00 277.07 C 661.07 280.35 665.71 280.79 667.43 278.50 C 676.55 269.87 684.77 259.36 687.70 246.92 C 688.60 256.48 685.81 265.87 683.17 274.96 C 682.20 278.68 679.66 281.99 679.70 285.95 C 681.24 289.05 685.21 289.57 688.16 288.41 C 694.31 286.39 698.45 281.09 702.24 276.14 C 708.14 268.39 709.96 258.49 710.85 249.03 C 710.97 246.44 711.32 243.57 709.78 241.31 C 708.24 240.97 706.66 241.00 705.11 240.93 C 702.96 247.93 701.26 255.06 699.40 262.13 C 698.04 267.52 694.57 272.02 691.15 276.26 C 693.87 265.25 697.29 253.88 695.23 242.45 C 693.69 235.02 693.55 227.34 691.41 220.05 C 691.01 217.92 688.47 217.68 686.94 216.69 C 684.15 219.35 683.29 223.22 683.26 226.94 C 682.90 237.85 679.64 248.53 674.58 258.15 C 676.90 243.40 675.09 228.10 669.79 214.16 C 668.76 211.64 667.64 209.05 665.64 207.14 C 663.57 205.19 659.15 206.91 659.71 209.99 C 660.52 221.26 660.89 233.13 656.10 243.67 C 655.71 235.72 655.44 227.64 653.01 220.00 C 651.23 214.52 650.22 208.68 647.16 203.70 C 646.05 201.25 643.05 202.62 641.06 202.87 M 486.48 294.30 C 470.75 298.37 456.04 306.10 443.43 316.32 C 434.25 323.72 427.11 333.48 422.19 344.14 C 418.65 352.49 415.62 361.08 413.46 369.89 C 409.27 390.21 406.68 411.41 410.91 431.95 C 412.39 440.68 413.95 449.39 415.31 458.14 C 416.42 464.87 418.80 471.29 420.60 477.84 C 423.47 489.25 430.55 498.89 435.32 509.50 C 435.73 510.74 436.07 512.00 436.36 513.28 C 432.53 514.19 428.81 512.70 425.21 511.62 C 425.35 523.20 430.84 534.22 429.44 545.89 C 428.81 548.77 424.64 549.26 422.79 547.27 C 413.49 538.86 407.26 527.66 402.56 516.18 C 400.44 511.25 400.54 505.79 400.42 500.53 C 398.48 499.94 396.56 499.37 394.63 498.80 C 393.20 508.35 394.49 518.23 397.92 527.23 C 401.44 535.50 406.96 542.66 411.76 550.19 C 416.99 558.41 423.88 565.82 432.64 570.31 C 433.21 576.24 434.64 582.04 435.38 587.94 C 436.26 597.23 437.19 606.51 438.25 615.78 C 441.94 630.50 447.70 644.92 456.75 657.20 C 462.48 665.37 468.12 673.71 475.30 680.71 C 488.40 693.87 497.86 710.05 510.03 724.00 C 516.90 731.28 525.63 736.83 535.19 739.80 C 547.42 743.85 561.00 741.93 572.45 736.39 C 578.07 733.70 582.81 729.59 587.55 725.62 C 595.27 718.99 602.44 711.63 608.29 703.29 C 612.13 697.57 616.76 692.47 621.03 687.09 C 626.51 680.42 630.96 673.01 636.24 666.19 C 640.62 660.47 644.06 654.11 648.20 648.21 C 658.06 633.80 662.40 616.60 666.34 599.83 C 668.54 587.66 669.90 575.37 671.54 563.12 C 672.02 560.77 672.43 557.68 675.15 556.94 C 682.65 554.30 688.47 548.60 694.19 543.30 C 701.27 534.65 706.15 524.26 709.27 513.55 C 711.52 506.30 711.03 498.61 710.77 491.13 C 709.93 491.49 709.10 491.86 708.28 492.23 C 707.00 498.57 705.39 504.86 703.09 510.91 C 699.42 522.32 691.92 532.14 683.11 540.10 C 681.37 541.74 678.78 541.10 676.65 541.26 C 677.48 533.63 678.18 525.94 680.25 518.52 C 682.36 511.09 683.57 503.45 685.56 495.99 C 681.09 498.68 676.63 501.38 672.13 504.01 C 670.97 503.39 669.83 502.78 668.69 502.17 C 671.19 496.90 674.51 492.06 676.56 486.58 C 687.09 463.07 699.99 439.33 700.21 412.91 C 701.45 402.26 699.55 391.65 699.73 381.01 C 700.76 367.39 698.47 353.67 694.11 340.79 C 689.94 331.53 683.70 323.41 677.39 315.52 C 674.82 312.42 672.49 308.90 668.80 307.01 C 664.43 304.66 660.27 301.81 655.48 300.36 C 649.84 298.59 643.92 297.66 638.02 297.66 C 632.19 298.56 627.30 302.22 622.82 305.82 C 615.87 311.84 609.02 318.08 603.27 325.29 C 601.44 327.42 600.80 330.23 600.50 332.95 C 599.47 341.89 598.58 350.86 598.48 359.87 C 598.46 362.62 595.64 364.83 592.96 364.41 C 590.01 364.59 588.87 361.49 587.51 359.48 C 582.75 358.13 579.16 354.36 577.33 349.85 C 575.72 352.60 574.46 355.75 571.90 357.77 C 568.77 358.59 565.78 356.05 565.12 353.10 C 564.09 349.19 564.27 345.12 564.19 341.12 C 560.97 345.63 558.22 350.51 554.38 354.53 C 552.46 356.82 548.07 355.89 547.53 352.88 C 546.93 349.32 547.28 345.69 547.38 342.11 C 541.18 348.34 535.39 355.46 527.24 359.23 C 524.08 360.93 519.45 358.81 519.39 355.03 C 519.89 351.49 522.01 348.49 523.22 345.19 C 524.98 341.03 525.73 336.40 524.95 331.92 C 522.73 317.40 514.37 304.17 503.07 294.97 C 497.99 292.21 491.90 293.43 486.48 294.30 M 397.71 297.78 C 394.37 300.21 392.69 304.15 390.63 307.60 C 387.31 313.83 382.58 319.35 380.41 326.15 C 378.85 331.07 377.35 336.00 375.59 340.85 C 372.36 349.96 371.17 359.59 369.02 368.97 C 367.16 376.84 367.94 384.97 367.86 392.98 C 367.46 400.06 368.42 407.10 370.06 413.99 C 366.28 409.38 362.02 405.06 359.19 399.76 C 356.75 395.23 354.26 390.73 351.78 386.22 C 347.77 378.87 346.63 370.40 343.24 362.80 C 341.35 359.03 333.84 357.71 332.77 362.75 C 331.04 369.68 329.55 376.78 329.64 383.96 C 330.15 394.06 332.44 404.00 335.60 413.59 C 339.62 428.80 346.62 443.25 356.36 455.62 C 361.68 462.06 368.75 466.65 375.31 471.71 C 381.00 475.67 386.53 480.04 392.89 482.91 C 396.84 483.31 400.12 480.45 402.40 477.54 C 389.72 467.33 374.66 459.64 364.68 446.42 C 358.21 438.19 354.42 428.35 350.35 418.81 C 347.25 411.47 344.86 403.76 344.07 395.80 C 348.13 401.85 351.97 408.05 355.79 414.26 C 359.85 420.76 364.48 426.89 368.38 433.49 C 371.73 439.34 376.42 444.23 380.57 449.50 C 383.68 452.39 388.24 455.13 392.57 453.45 C 394.63 451.33 396.06 447.86 394.62 445.05 C 392.39 439.73 389.65 434.61 388.08 429.04 C 384.57 418.68 383.56 407.74 382.07 396.98 C 380.55 384.87 384.51 373.06 385.55 361.10 C 385.95 355.28 387.20 349.59 388.38 343.90 C 389.77 337.65 389.93 331.11 392.38 325.12 C 395.38 316.86 400.70 309.78 405.48 302.50 C 406.86 298.41 400.76 295.61 397.71 297.78 M 701.77 305.56 C 700.36 308.90 702.27 312.33 703.19 315.53 C 706.18 325.38 711.36 334.59 712.80 344.90 C 714.14 355.26 716.57 365.54 716.42 376.05 C 717.12 393.51 715.58 411.16 710.91 428.03 C 709.81 432.12 707.38 435.78 706.79 440.01 C 707.19 442.25 709.60 444.51 711.91 443.03 C 723.12 436.31 731.13 425.67 738.39 415.04 C 739.75 413.25 739.92 410.76 741.66 409.26 C 738.99 419.82 733.56 429.39 729.18 439.30 C 725.96 446.63 721.82 453.58 716.70 459.74 C 709.36 468.28 696.28 469.26 689.91 478.85 C 690.41 480.21 690.90 481.58 691.39 482.96 C 693.50 483.48 695.89 484.33 697.81 482.79 C 709.10 476.17 721.96 470.86 729.92 459.96 C 735.55 452.17 741.69 444.57 745.36 435.59 C 751.30 421.16 756.12 405.63 754.43 389.84 C 753.18 379.89 753.26 369.75 750.85 359.97 C 749.99 356.97 749.22 353.45 746.51 351.57 C 744.31 350.00 740.73 352.32 741.43 354.93 C 742.56 364.56 743.21 374.82 739.10 383.88 C 734.33 393.99 729.92 404.29 724.47 414.06 C 728.72 391.30 728.84 367.79 725.00 344.96 C 723.72 337.34 719.83 330.46 718.51 322.85 C 717.50 316.68 714.83 310.89 711.31 305.76 C 709.38 302.44 703.68 302.08 701.77 305.56 M 319.95 509.98 C 319.24 513.13 321.20 515.86 322.93 518.26 C 321.76 520.80 320.29 523.73 321.64 526.52 C 322.50 529.24 325.46 530.15 327.77 531.26 C 327.16 532.99 325.35 534.94 326.42 536.86 C 327.76 538.98 329.94 540.37 331.78 542.03 C 328.98 545.18 325.27 547.56 323.01 551.17 C 319.94 556.91 323.02 563.23 324.17 569.05 C 324.98 572.92 326.59 577.74 331.05 578.53 C 336.98 578.80 342.95 578.12 348.86 579.12 C 346.96 580.64 344.84 581.99 343.46 584.06 C 342.55 587.49 346.63 588.66 348.95 589.83 C 343.15 592.34 335.77 593.38 332.36 599.37 C 330.24 603.04 326.78 607.11 328.49 611.61 C 329.85 615.06 334.04 614.14 336.96 614.15 C 335.25 617.91 333.73 622.83 336.63 626.42 C 339.92 631.07 346.43 629.80 350.88 632.61 C 349.54 637.17 347.06 641.25 344.40 645.15 C 341.62 649.39 337.76 653.59 338.00 659.01 C 337.94 662.85 340.99 665.87 344.14 667.60 C 347.08 669.32 350.53 668.11 353.58 667.42 C 352.87 670.62 351.52 674.37 353.57 677.38 C 354.85 679.65 357.41 681.75 360.17 680.68 C 366.36 679.16 369.50 672.89 374.88 670.00 C 376.34 669.16 377.89 670.53 379.37 670.77 C 376.71 677.70 368.87 682.09 368.79 690.04 C 368.48 692.49 370.41 694.25 371.83 695.97 C 367.99 702.02 363.81 708.53 364.02 715.98 C 363.76 721.50 367.23 726.44 371.46 729.65 C 375.11 732.21 379.76 730.76 383.73 729.90 C 381.84 734.12 379.16 739.03 381.38 743.66 C 382.84 746.66 386.63 745.42 389.24 745.39 C 388.58 749.58 387.31 753.72 387.57 758.01 C 389.39 758.81 391.21 759.61 393.04 760.41 C 392.45 764.00 391.31 768.62 394.55 771.35 C 396.44 773.37 399.16 771.95 401.35 771.34 C 401.94 773.83 401.96 776.99 404.41 778.50 C 407.36 780.65 410.81 778.35 413.64 777.18 C 412.91 780.24 410.94 784.03 413.34 786.84 C 416.28 788.79 419.33 786.19 421.62 784.44 C 421.34 787.57 420.88 790.80 421.70 793.89 C 422.80 797.60 427.54 799.76 430.94 797.64 C 434.60 795.91 435.42 791.12 439.13 789.52 C 439.41 794.74 436.99 799.78 437.95 805.01 C 438.40 807.31 440.46 809.48 442.97 809.23 C 445.87 809.30 447.63 806.64 449.45 804.79 C 449.52 808.99 449.86 813.74 453.09 816.84 C 455.48 819.37 460.30 819.23 462.06 816.04 C 466.09 809.53 463.16 801.24 466.65 794.57 C 468.25 791.37 471.25 789.30 474.11 787.35 C 474.69 790.22 474.91 793.23 476.11 795.94 C 477.17 798.34 481.00 798.67 482.57 796.61 C 484.85 793.97 486.71 791.00 489.11 788.48 C 489.35 794.06 485.78 798.67 484.54 803.92 C 483.20 809.20 482.78 814.93 484.58 820.16 C 486.00 824.03 490.47 827.32 494.63 825.54 C 498.71 823.39 500.15 818.66 501.62 814.63 C 502.51 817.67 503.26 821.08 505.92 823.12 C 508.84 825.62 513.75 825.11 516.08 822.05 C 520.01 817.26 517.02 809.67 521.91 805.42 C 523.13 812.34 521.26 819.90 524.77 826.31 C 526.81 829.51 529.94 832.89 534.04 832.83 C 536.71 832.48 537.11 829.10 536.96 826.95 C 536.35 817.32 535.17 807.70 535.37 798.04 C 535.63 788.02 535.86 777.99 536.89 768.02 C 537.57 765.29 534.70 763.91 533.06 762.37 C 529.48 763.54 528.56 767.51 528.28 770.82 C 527.36 782.09 529.12 793.42 527.65 804.66 C 526.10 802.68 524.90 799.67 521.99 799.57 C 519.16 800.04 517.16 802.34 515.69 804.64 C 512.75 809.08 513.45 814.89 510.44 819.31 C 508.02 814.26 508.04 808.44 505.64 803.39 C 504.80 800.86 501.07 800.51 499.41 802.35 C 495.90 807.16 496.35 813.97 491.99 818.28 C 490.35 812.85 490.83 806.96 492.84 801.71 C 494.17 797.98 495.99 794.16 495.55 790.11 C 495.10 786.15 491.14 782.47 487.04 783.64 C 484.42 784.64 482.79 787.11 480.92 789.06 C 479.63 786.22 478.79 781.84 474.96 781.61 C 470.23 781.74 466.28 784.83 463.17 788.11 C 459.76 791.71 459.12 796.85 457.25 801.26 C 457.35 796.93 458.94 792.54 457.70 788.27 C 456.40 786.01 452.66 786.03 451.46 788.38 C 449.08 792.40 447.17 796.75 444.03 800.28 C 444.82 791.15 452.08 784.13 452.81 775.00 C 453.11 771.41 449.42 768.39 445.97 768.89 C 441.85 769.13 438.71 772.42 437.09 775.98 C 434.94 780.70 431.92 784.92 428.90 789.11 C 428.91 785.00 429.90 780.13 426.89 776.78 C 425.30 776.06 423.51 776.36 421.84 776.21 C 420.94 777.45 420.03 778.70 419.12 779.95 C 420.70 775.34 423.84 771.59 426.55 767.63 C 428.71 764.54 427.94 759.13 424.14 757.75 C 421.01 757.41 418.90 760.10 417.33 762.39 C 414.29 766.89 411.68 771.97 406.91 774.93 C 406.95 770.94 407.36 766.94 406.77 762.98 C 405.16 762.50 403.53 762.06 401.91 761.68 C 401.52 758.63 403.38 755.97 403.66 753.02 C 403.00 750.72 400.44 750.63 398.56 750.00 C 400.35 745.61 403.39 740.92 401.79 736.01 C 401.12 733.45 398.19 733.05 396.11 732.20 C 396.56 729.14 397.47 726.15 397.70 723.07 C 396.60 718.50 390.41 716.06 386.38 718.46 C 383.83 719.90 381.48 721.65 378.94 723.10 C 377.47 722.86 376.00 722.63 374.54 722.41 C 374.33 718.11 373.34 713.05 376.46 709.52 C 381.32 704.28 388.35 701.25 392.17 695.02 C 394.53 691.19 394.36 685.34 390.48 682.56 C 387.75 680.47 384.30 682.09 381.41 682.87 C 384.65 677.59 388.91 671.23 386.25 664.84 C 384.01 660.23 378.21 660.13 373.81 659.69 C 383.80 650.51 395.34 643.24 407.48 637.26 C 410.94 635.94 408.60 629.39 405.07 630.97 C 399.05 632.51 393.64 635.70 388.13 638.46 C 380.95 642.86 374.60 648.49 368.48 654.24 C 368.04 653.16 367.59 652.09 367.16 651.03 C 358.66 649.28 353.86 658.45 346.01 659.49 C 347.76 651.97 354.93 648.02 359.08 642.03 C 362.74 637.14 363.72 629.92 360.37 624.63 C 357.55 620.84 352.65 619.81 348.41 618.46 C 350.37 614.77 351.63 609.84 348.76 606.25 C 346.07 603.36 341.77 604.09 338.23 603.70 C 343.96 597.93 353.11 598.53 359.00 593.08 C 361.90 590.34 361.23 586.03 360.34 582.57 C 368.57 585.13 376.97 587.13 385.42 588.78 C 386.74 588.92 388.41 589.64 389.44 588.39 C 390.73 586.92 390.56 584.20 388.71 583.25 C 381.97 578.70 374.05 576.49 366.53 573.60 C 356.30 569.49 345.13 566.73 334.05 567.87 C 331.91 562.55 330.67 556.84 330.93 551.08 C 333.27 548.46 336.48 545.85 336.44 542.01 C 336.47 539.39 334.27 537.65 332.74 535.82 C 334.10 534.05 336.22 532.47 336.18 530.03 C 336.00 526.97 332.96 525.60 330.77 524.09 C 332.10 523.02 333.56 522.08 334.66 520.75 C 335.44 518.96 335.09 516.93 335.23 515.04 C 345.12 520.61 355.69 525.38 366.99 527.10 C 371.62 527.97 376.51 526.98 380.57 524.65 C 382.27 523.35 381.79 520.86 382.30 519.01 C 377.56 518.88 372.73 519.53 368.08 518.38 C 354.28 514.91 341.29 508.78 329.13 501.46 C 325.22 502.95 320.25 505.15 319.95 509.98 M 735.58 514.49 C 731.13 518.29 725.20 519.46 720.46 522.73 C 717.54 524.50 719.56 529.87 722.94 529.03 C 732.73 526.63 740.57 519.94 749.24 515.19 C 752.31 513.37 755.69 515.57 758.66 516.55 C 756.80 520.03 754.56 523.32 753.02 526.97 C 751.71 529.55 752.91 533.54 756.00 534.10 C 760.61 534.70 765.11 533.13 769.62 532.43 C 767.52 535.45 764.60 538.26 764.14 542.08 C 763.72 545.29 766.66 547.81 769.61 548.23 C 773.17 548.79 776.82 548.63 780.38 549.31 C 779.27 551.72 778.15 554.35 775.84 555.87 C 772.37 558.39 767.85 557.63 763.87 558.40 C 754.23 559.81 747.11 567.20 738.12 570.35 C 730.29 573.05 723.97 578.51 718.18 584.25 C 717.15 585.22 717.36 586.75 717.12 588.03 C 718.66 588.27 720.34 588.78 721.78 587.81 C 727.07 584.95 732.22 581.83 737.50 578.93 C 738.56 581.57 740.40 583.78 742.94 585.13 C 741.57 587.16 740.97 589.54 741.87 591.91 C 744.22 592.44 746.56 593.03 748.91 593.64 C 746.11 596.13 742.47 598.30 741.40 602.12 C 740.53 605.23 742.59 608.22 745.09 609.89 C 749.39 612.96 754.89 613.07 759.97 613.30 C 761.04 615.95 763.04 619.27 761.01 621.98 C 757.97 625.99 753.81 629.03 751.02 633.26 C 752.78 637.24 756.88 639.06 760.27 641.38 C 759.00 643.08 758.17 645.51 755.93 646.13 C 752.38 647.42 747.79 647.35 745.54 650.88 C 744.42 653.78 744.79 657.57 747.29 659.67 C 749.27 661.84 752.63 663.65 752.37 667.03 C 750.91 669.95 747.17 671.82 744.05 670.40 C 727.96 664.47 713.73 654.47 697.60 648.65 C 694.41 647.57 690.62 646.54 687.58 648.59 C 686.28 650.09 686.62 652.56 688.25 653.69 C 696.05 660.26 705.82 663.65 714.95 667.92 C 712.93 670.92 712.57 675.11 714.91 678.05 C 717.68 682.23 723.85 681.33 726.75 685.33 C 728.27 686.84 728.63 689.32 727.42 691.14 C 724.95 695.14 718.78 694.24 716.50 698.42 C 715.26 701.79 717.57 704.99 718.48 708.14 C 719.39 710.45 718.47 712.91 718.16 715.26 C 714.32 712.59 710.14 708.49 705.04 710.08 C 700.09 711.86 699.17 717.95 700.11 722.49 C 697.90 724.12 694.56 725.65 695.01 728.97 C 695.25 737.76 702.64 743.59 706.13 751.08 C 700.65 749.56 694.23 750.04 689.73 753.75 C 687.11 756.49 688.21 760.62 688.35 764.02 C 685.43 764.00 681.56 762.74 679.47 765.49 C 675.79 770.26 678.01 776.61 679.74 781.70 C 676.57 780.25 673.04 778.41 669.48 779.65 C 664.96 780.98 662.26 785.26 660.75 789.45 C 658.40 787.09 655.71 784.01 651.98 784.78 C 646.70 785.19 644.44 790.70 642.84 794.98 C 639.84 790.34 636.52 785.92 633.29 781.44 C 631.37 782.04 629.11 782.10 627.56 783.52 C 625.68 785.77 625.63 789.22 627.40 791.55 C 630.62 796.22 633.84 801.25 634.20 807.09 C 634.80 812.39 631.38 817.15 627.23 820.08 C 622.88 812.12 619.42 803.73 615.19 795.72 C 613.76 792.91 611.75 790.45 609.33 788.45 C 608.35 789.60 607.33 790.73 606.57 792.06 C 608.41 800.48 612.16 808.36 616.16 815.95 C 614.53 819.28 612.53 822.42 609.99 825.14 C 607.20 823.18 605.51 818.10 601.36 819.46 C 597.80 820.72 597.97 825.22 597.02 828.23 C 594.02 823.36 592.64 817.78 590.70 812.47 C 589.57 809.64 587.57 806.02 584.00 806.38 C 580.97 806.29 580.08 809.65 579.84 812.05 C 579.10 818.26 578.09 824.62 574.86 830.09 C 571.80 824.36 573.25 817.73 572.18 811.59 C 569.96 797.60 566.61 783.82 563.42 770.03 C 562.82 766.56 558.65 763.88 555.65 766.52 C 556.53 778.91 561.19 790.62 562.40 802.96 C 563.21 810.88 565.07 818.83 563.91 826.82 C 563.30 826.81 562.07 826.80 561.46 826.79 C 560.85 823.31 560.65 819.69 559.27 816.41 C 557.96 813.66 553.03 814.41 552.63 817.45 C 552.10 819.90 551.92 822.43 551.54 824.92 C 550.19 821.70 549.31 818.31 548.72 814.87 C 548.36 813.49 548.29 811.79 546.96 810.96 C 545.07 809.48 541.62 810.24 541.15 812.78 C 540.60 817.89 542.13 823.05 544.50 827.55 C 546.93 831.78 551.98 833.57 556.67 833.42 C 558.20 835.90 559.54 838.70 562.06 840.37 C 565.06 841.23 567.31 838.68 569.42 837.01 C 571.87 839.35 575.18 842.65 578.87 840.88 C 584.74 838.27 585.54 831.02 585.51 825.38 C 588.01 830.79 591.20 837.77 598.03 838.23 C 601.82 838.78 603.84 834.99 605.41 832.25 C 607.74 832.74 610.32 833.84 612.63 832.65 C 616.71 830.65 618.84 826.41 620.90 822.60 C 622.75 823.86 624.47 826.05 626.97 825.77 C 630.27 825.54 634.14 825.23 636.32 822.38 C 641.29 816.72 641.75 808.47 639.69 801.50 C 642.37 802.21 646.04 803.97 648.30 801.49 C 650.43 798.48 650.78 794.67 652.03 791.28 C 654.73 794.12 657.08 797.41 660.41 799.57 C 662.34 800.99 665.33 800.62 666.88 798.80 C 668.60 795.86 668.27 791.55 671.40 789.56 C 674.22 788.62 677.08 790.31 679.92 790.57 C 683.08 791.52 686.87 789.39 687.22 786.00 C 687.88 781.43 686.32 776.94 685.30 772.55 C 688.25 772.63 691.98 773.78 694.29 771.27 C 697.47 767.93 696.18 762.93 695.97 758.83 C 700.98 757.96 706.10 757.03 710.69 754.75 C 713.19 753.37 713.19 749.93 712.31 747.57 C 709.87 740.78 705.12 735.19 702.02 728.73 C 705.06 729.81 708.36 731.89 711.67 730.61 C 713.80 729.75 713.90 726.87 712.76 725.19 C 711.08 722.75 708.69 720.83 707.49 718.07 C 711.47 720.19 715.09 724.17 720.01 723.45 C 724.46 722.72 726.68 717.99 727.30 713.97 C 728.29 709.93 726.84 705.90 725.42 702.18 C 732.13 699.63 737.52 692.42 735.74 685.07 C 734.10 681.14 730.68 678.38 728.32 674.93 C 734.97 676.14 741.35 678.63 748.11 679.33 C 753.99 680.08 759.41 675.42 761.17 670.07 C 762.19 664.67 758.09 660.28 754.92 656.44 C 762.51 655.93 769.53 648.72 767.85 640.88 C 767.61 637.01 764.44 634.49 761.58 632.38 C 764.76 629.48 768.78 626.60 769.34 621.98 C 770.14 616.35 768.12 609.71 762.90 606.85 C 758.33 605.30 753.16 605.95 748.92 603.33 C 750.97 601.26 753.76 599.71 755.08 597.01 C 755.99 592.44 752.63 588.54 752.29 584.09 C 752.00 580.01 747.40 579.09 744.41 577.63 C 751.20 570.50 761.46 567.78 771.00 567.11 C 777.89 566.42 784.80 562.08 787.44 555.52 C 788.32 551.72 789.07 546.87 786.21 543.72 C 782.73 540.96 777.99 541.08 773.80 540.64 C 776.09 536.91 779.27 532.37 777.16 527.87 C 774.18 523.56 768.25 524.60 763.75 524.78 C 765.84 521.19 768.93 516.70 766.50 512.53 C 763.46 508.00 757.99 505.64 752.88 504.36 C 745.56 504.07 741.15 510.87 735.58 514.49 Z" />
<path fill="#000000" opacity="1.00" d=" M 486.85 526.42 C 488.10 516.95 489.78 507.45 492.81 498.38 C 493.69 498.35 495.44 498.29 496.31 498.27 C 494.82 508.45 493.50 518.73 493.92 529.04 C 493.76 533.97 499.19 535.93 502.47 538.49 C 510.20 544.49 519.33 548.92 529.18 549.84 C 528.31 547.97 527.43 546.10 526.53 544.26 C 528.85 542.96 532.18 541.02 534.47 543.42 C 538.72 547.32 541.46 555.93 535.61 559.63 C 532.61 560.77 531.73 556.81 530.62 554.91 C 517.85 555.38 505.65 550.39 494.88 543.95 C 495.42 546.70 495.99 549.45 496.64 552.18 C 507.93 554.91 519.13 558.07 530.08 561.98 C 529.62 563.40 529.80 565.28 528.38 566.19 C 519.25 573.87 506.64 578.06 494.82 575.14 C 494.95 576.94 495.09 578.78 495.23 580.60 C 498.01 581.39 500.77 582.28 503.46 583.35 C 499.91 585.83 495.61 586.68 491.41 587.31 C 486.25 595.90 480.86 604.34 476.13 613.18 C 471.70 620.68 466.71 629.03 468.46 638.11 C 468.85 641.33 471.56 644.65 475.08 644.14 C 479.81 642.85 483.97 639.64 486.57 635.49 C 488.55 632.38 490.37 629.15 492.66 626.25 C 493.69 627.49 494.71 628.76 495.72 630.05 C 494.86 635.68 491.33 640.32 487.39 644.21 C 496.23 651.00 506.09 656.58 516.94 659.41 C 529.69 662.73 542.85 664.97 556.06 664.71 C 563.00 664.62 570.01 666.03 576.88 664.46 C 589.10 661.93 599.45 654.44 609.18 647.00 C 607.42 644.93 605.45 642.96 604.25 640.50 C 602.94 637.91 603.60 634.95 603.76 632.21 C 605.34 632.81 607.02 633.43 607.98 634.95 C 611.56 639.38 615.74 644.48 621.87 644.92 C 625.05 645.24 628.69 644.45 630.49 641.56 C 633.32 637.60 633.35 632.39 632.00 627.88 C 628.60 613.71 622.36 600.49 616.94 587.03 C 612.59 586.62 607.41 585.44 605.86 580.75 C 609.27 580.36 612.69 580.06 616.10 579.64 C 616.19 577.81 616.30 575.99 616.43 574.17 C 611.35 574.66 606.18 575.35 601.12 574.32 C 593.84 572.72 586.50 570.84 579.98 567.11 C 580.36 565.81 580.73 564.51 581.11 563.22 C 583.31 562.09 585.53 560.99 587.86 560.16 C 596.12 557.20 604.16 553.69 612.31 550.44 C 612.60 548.39 612.89 546.34 613.21 544.30 C 601.02 548.66 588.42 553.58 575.21 552.22 C 573.83 555.06 571.94 558.30 568.30 558.11 C 566.10 552.21 568.49 545.82 571.98 540.97 C 573.48 539.02 576.48 537.33 578.66 539.31 C 581.61 540.89 580.70 544.59 580.81 547.31 C 586.32 545.81 591.93 544.51 597.13 542.08 C 603.28 539.31 608.55 535.01 614.34 531.62 C 615.19 521.84 611.38 512.44 611.69 502.69 C 612.50 502.68 614.14 502.67 614.96 502.66 C 618.21 510.43 619.17 518.88 619.71 527.20 C 632.43 518.11 643.95 506.99 658.37 500.53 C 665.16 498.20 672.03 507.21 667.83 513.18 C 666.72 510.95 666.16 508.15 663.93 506.73 C 661.02 506.01 658.55 508.26 656.09 509.43 C 645.86 515.06 638.70 524.52 629.63 531.64 C 627.17 533.83 624.37 535.68 622.24 538.22 C 620.71 540.88 621.29 544.14 621.08 547.08 C 627.88 544.81 634.43 540.20 641.91 541.34 C 644.61 541.95 642.54 545.13 642.20 546.86 C 645.98 548.01 650.08 549.09 652.95 551.99 C 652.05 553.20 651.01 554.30 650.02 555.45 C 645.38 555.67 640.87 554.42 636.46 553.16 C 634.68 560.71 630.89 568.47 623.51 571.91 C 623.55 572.84 623.63 574.68 623.67 575.61 C 627.80 572.62 631.13 568.41 636.06 566.65 C 634.71 574.04 630.81 581.02 624.65 585.43 C 625.53 599.03 636.14 609.01 639.37 621.86 C 641.44 629.07 643.14 637.02 640.19 644.25 C 638.92 648.39 634.73 650.51 630.87 651.68 C 626.77 653.16 622.37 652.88 618.10 652.70 C 615.77 656.31 614.12 660.28 612.01 664.00 C 611.25 665.68 609.20 665.82 607.74 666.54 C 607.64 659.95 611.41 654.39 614.35 648.80 C 609.46 652.67 604.00 656.28 600.85 661.83 C 594.53 671.96 589.69 682.90 585.10 693.89 C 581.35 701.73 575.34 708.94 567.17 712.36 C 556.22 717.31 542.31 716.91 532.68 709.27 C 526.53 704.11 520.66 698.33 516.82 691.20 C 511.36 680.36 508.25 668.14 500.36 658.66 C 496.61 655.31 491.76 653.53 487.63 650.72 C 488.83 655.31 491.45 660.17 489.15 664.88 C 482.54 663.41 481.81 655.90 480.92 650.40 C 476.65 651.79 471.70 654.13 467.39 651.59 C 462.98 649.62 460.58 644.98 459.78 640.42 C 458.22 632.36 460.40 623.76 465.21 617.15 C 472.32 607.07 478.24 596.22 484.90 585.84 C 479.67 581.52 473.80 576.34 473.02 569.20 C 475.76 569.67 477.72 571.74 479.96 573.20 C 482.75 575.15 485.85 576.58 488.91 578.05 C 488.74 576.17 488.58 574.30 488.41 572.43 C 482.06 568.83 477.09 563.36 472.83 557.51 C 470.00 558.69 467.17 559.86 464.33 561.01 C 463.18 560.17 462.03 559.34 460.89 558.52 C 461.25 553.92 466.27 552.72 469.78 551.20 C 466.62 550.43 462.89 549.25 462.51 545.44 C 471.03 545.34 479.20 548.05 487.51 549.47 C 486.85 545.11 486.90 540.58 485.52 536.37 C 483.99 534.54 481.95 533.25 480.10 531.79 C 471.43 525.26 464.23 516.75 454.53 511.65 C 451.65 510.07 448.30 510.51 445.19 510.80 C 444.81 513.57 444.49 516.35 444.15 519.13 C 442.40 518.06 440.43 516.97 439.84 514.85 C 437.52 509.11 443.06 502.50 449.00 502.87 C 454.24 503.07 458.82 506.02 462.87 509.11 C 470.59 515.24 478.84 520.68 486.85 526.42 M 625.00 551.82 C 625.58 553.84 626.72 555.60 628.41 556.92 C 629.79 554.49 630.88 551.92 631.84 549.31 C 629.54 550.08 627.25 550.92 625.00 551.82 M 478.59 553.33 C 478.46 557.04 480.60 560.07 482.49 563.04 C 483.01 560.29 483.59 557.55 484.28 554.85 C 482.38 554.33 480.48 553.81 478.59 553.33 M 611.35 556.42 C 607.02 557.90 607.03 565.10 611.50 566.39 C 615.44 568.06 620.00 564.08 619.20 559.97 C 618.85 556.32 614.28 555.16 611.35 556.42 M 495.42 558.49 C 491.17 560.50 492.18 568.06 496.90 568.72 C 501.25 569.91 505.09 564.68 503.31 560.77 C 502.18 557.67 498.06 557.01 495.42 558.49 M 514.17 561.52 C 513.95 564.07 513.74 566.61 513.55 569.17 C 516.21 568.20 518.70 566.83 520.74 564.85 C 518.56 563.71 516.36 562.62 514.17 561.52 M 591.03 565.71 C 593.22 566.31 595.47 566.63 597.74 566.80 C 597.27 565.16 596.74 563.54 596.11 561.96 C 594.10 562.74 592.34 563.99 591.03 565.71 M 532.72 669.67 C 532.41 671.31 532.10 672.97 531.79 674.62 C 537.49 678.47 542.78 684.05 550.13 684.16 C 550.57 680.19 551.12 676.11 549.90 672.22 C 544.28 670.73 538.47 670.31 532.72 669.67 M 554.91 672.89 C 554.66 676.17 554.26 679.55 555.08 682.79 C 556.65 685.00 560.06 684.37 561.97 682.93 C 565.08 680.43 567.96 677.64 571.18 675.26 C 571.12 674.29 571.01 672.37 570.95 671.41 C 565.60 671.88 560.18 671.72 554.91 672.89 Z" />
<path fill="#000000" opacity="1.00" d=" M 655.42 523.11 C 656.18 520.34 658.05 516.48 661.57 517.49 C 665.55 519.36 665.93 524.42 668.31 527.70 C 668.44 535.03 668.00 543.05 662.94 548.85 C 661.02 548.28 658.64 548.39 657.28 546.73 C 656.08 542.81 657.03 538.66 657.02 534.65 C 654.78 536.04 652.70 537.95 650.03 538.42 C 648.60 538.06 647.24 537.52 645.88 537.03 C 649.30 532.57 654.05 528.81 655.42 523.11 Z" />
<path fill="#000000" opacity="1.00" d=" M 438.26 531.03 C 438.99 529.20 442.02 527.20 443.63 529.23 C 446.34 532.21 448.41 535.76 451.51 538.40 C 454.28 540.79 457.27 542.91 460.01 545.36 C 459.45 546.81 458.88 548.25 458.33 549.71 C 454.55 549.93 451.11 548.29 447.81 546.70 C 449.42 549.06 451.26 551.33 452.30 554.03 C 453.13 556.23 451.95 558.45 451.33 560.54 C 447.24 560.18 443.87 557.52 441.94 554.01 C 438.09 547.05 437.81 538.78 438.26 531.03 Z" />
<path fill="#000000" opacity="1.00" d=" M 542.24 615.20 C 548.13 611.72 555.35 610.09 562.05 611.97 C 567.26 613.26 570.49 618.70 576.00 619.17 C 579.63 618.45 582.28 615.21 586.06 614.93 C 590.09 615.04 591.82 619.54 591.56 623.01 C 591.88 629.96 587.53 635.99 582.63 640.44 C 579.25 642.43 575.78 639.27 572.34 639.28 C 569.33 641.01 568.42 644.70 565.95 646.97 C 561.35 650.82 554.45 651.65 549.09 648.92 C 544.30 646.62 541.62 641.73 537.40 638.69 C 533.50 639.39 529.36 640.83 525.50 639.20 C 519.08 636.85 516.58 629.20 516.89 622.90 C 516.79 619.47 518.56 615.77 522.09 614.82 C 526.07 613.04 529.45 616.72 533.00 617.94 C 536.38 619.23 539.34 616.51 542.24 615.20 Z" />
</g>
</svg>
